<svg id="pngkit_equalizer-png_4463662" xmlns="http://www.w3.org/2000/svg" viewBox="0 0 19.192 19.213">
  <defs>
    <style>
      .cls-1 {
        fill: #fff;
      }
    </style>
  </defs>
  <path id="Path_3" data-name="Path 3" class="cls-1" d="M2.692-980.844a.674.674,0,0,0-.331.3l-.045.092-.01,3.427L2.3-973.6l-.167.053a2.4,2.4,0,0,0-1.582,1.79,3.326,3.326,0,0,0,0,.976,2.392,2.392,0,0,0,1.58,1.786l.167.053.01,3.429c.012,3.9-.01,3.509.19,3.692a.547.547,0,0,0,.459.151.573.573,0,0,0,.484-.318l.053-.1.01-3.427.01-3.429.167-.053a2.3,2.3,0,0,0,1.239-.972A2.209,2.209,0,0,0,5.3-971.28a2.1,2.1,0,0,0-.261-1.1,2.326,2.326,0,0,0-1.357-1.17l-.167-.053-.01-3.429-.01-3.427-.045-.092a.652.652,0,0,0-.337-.3A.721.721,0,0,0,2.692-980.844Zm.6,8.436a1.308,1.308,0,0,1,.767.814,1.409,1.409,0,0,1-.01.676,1.281,1.281,0,0,1-.771.786,1.4,1.4,0,0,1-.651.029,1.158,1.158,0,0,1-.571-.335,1.045,1.045,0,0,1-.31-.51,1.158,1.158,0,0,1,.155-.976,1.3,1.3,0,0,1,.706-.514A1.569,1.569,0,0,1,3.3-972.408Z" transform="translate(-0.512 980.875)"/>
  <path id="Path_4" data-name="Path 4" class="cls-1" d="M370.182-980.762a.562.562,0,0,0-.355.341c-.031.078-.033.416-.043,5.3l-.01,5.213-.167.053a2.154,2.154,0,0,0-.925.588,2.32,2.32,0,0,0-.682,1.678,2.32,2.32,0,0,0,.7,1.708,2.157,2.157,0,0,0,.914.571l.174.055v1.537c0,1.041.008,1.578.022,1.663a.59.59,0,0,0,.406.457.65.65,0,0,0,.614-.157c.173-.176.163-.069.171-1.894l.006-1.61.124-.033a2.393,2.393,0,0,0,1.541-1.517,2.325,2.325,0,0,0,.118-.778,2.32,2.32,0,0,0-.682-1.678,2.143,2.143,0,0,0-.925-.588l-.167-.053-.01-5.213c-.01-4.962-.012-5.215-.045-5.3a.579.579,0,0,0-.529-.365A.553.553,0,0,0,370.182-980.762Zm.523,12.016a1.268,1.268,0,0,1,.853.87,1.431,1.431,0,0,1,0,.563,1.273,1.273,0,0,1-.91.9,1.21,1.21,0,0,1-.808-.114,1.546,1.546,0,0,1-.461-.421,1.038,1.038,0,0,1-.178-.574,1.066,1.066,0,0,1,.124-.608A1.207,1.207,0,0,1,370.706-968.746Z" transform="translate(-360.795 980.795)"/>
  <path id="Path_5" data-name="Path 5" class="cls-1" d="M737.377-980.83a.532.532,0,0,0-.21.141c-.182.182-.173.074-.173,1.909v1.59l-.125.037a2.142,2.142,0,0,0-.914.533,2.356,2.356,0,0,0-.759,1.674,2.364,2.364,0,0,0,.71,1.8,2.218,2.218,0,0,0,.947.574l.141.043v5.2c0,5.2,0,5.2.041,5.311a.606.606,0,0,0,.367.337.613.613,0,0,0,.725-.3l.053-.1.006-5.229,0-5.229.114-.033a2.4,2.4,0,0,0,1.645-1.847,3.027,3.027,0,0,0,0-.912,2.379,2.379,0,0,0-.72-1.3,2.124,2.124,0,0,0-.912-.533l-.125-.037v-1.59c0-1.835.01-1.727-.173-1.909a.52.52,0,0,0-.218-.143A.726.726,0,0,0,737.377-980.83Zm.584,4.825a1.286,1.286,0,0,1,.778.788,1.334,1.334,0,0,1,.012.674,1.339,1.339,0,0,1-.527.7,1.2,1.2,0,0,1-1.263,0,1.338,1.338,0,0,1-.527-.7,1.347,1.347,0,0,1,.01-.672,1.268,1.268,0,0,1,.914-.827A1.646,1.646,0,0,1,737.961-976.005Z" transform="translate(-720.791 980.863)"/>
</svg>
